<svg width="237" height="410" viewBox="0 0 237 410" fill="none" xmlns="http://www.w3.org/2000/svg">
<g opacity="0.2">
<path opacity="0.5" d="M-78.6436 389.344L123.241 389.344L216.143 303.586L216.143 106.463L123.241 21.3013L-78.6436 21.3013" stroke="url(#paint0_linear_144_1520)" stroke-width="2"/>
<path d="M-54.8135 359.332L114.431 359.332L192.313 287.353L192.313 121.902L114.431 50.4235L-54.8135 50.4235" stroke="url(#paint1_linear_144_1520)" stroke-opacity="0.9" stroke-width="2"/>
<path d="M-49.5181 340.801L96.7575 340.801L164.07 278.076L164.07 133.898L96.7575 71.6091L-49.5181 71.6091" stroke="url(#paint2_linear_144_1520)" stroke-opacity="0.9" stroke-width="2"/>
<path d="M-91 408.758L132.644 408.758L235.56 313.746L235.56 95.3506L132.644 0.998571L-91 0.99858" stroke="url(#paint3_linear_144_1520)" stroke-opacity="0.9" stroke-width="2"/>
</g>
<defs>
<linearGradient id="paint0_linear_144_1520" x1="-78.6436" y1="205.323" x2="216.143" y2="205.323" gradientUnits="userSpaceOnUse">
<stop stop-color="#F15A29"/>
<stop offset="0.51" stop-color="#9124A3"/>
<stop offset="1" stop-color="#41124A"/>
</linearGradient>
<linearGradient id="paint1_linear_144_1520" x1="-54.8135" y1="204.878" x2="192.313" y2="204.878" gradientUnits="userSpaceOnUse">
<stop stop-color="#F15A29"/>
<stop offset="0.51" stop-color="#9124A3"/>
<stop offset="1" stop-color="#8B2200"/>
</linearGradient>
<linearGradient id="paint2_linear_144_1520" x1="-49.5181" y1="206.205" x2="164.07" y2="206.205" gradientUnits="userSpaceOnUse">
<stop stop-color="#F15A29"/>
<stop offset="0.51" stop-color="#9124A3"/>
<stop offset="1" stop-color="#8B2200"/>
</linearGradient>
<linearGradient id="paint3_linear_144_1520" x1="-91" y1="204.878" x2="235.56" y2="204.878" gradientUnits="userSpaceOnUse">
<stop stop-color="#F15A29"/>
<stop offset="0.51" stop-color="#9124A3"/>
<stop offset="1" stop-color="#8B2200"/>
</linearGradient>
</defs>
</svg>
