<svg width="238" height="258" viewBox="0 0 238 258" fill="none" xmlns="http://www.w3.org/2000/svg">
<path d="M177.878 256.511L177.402 256.245L204.862 206.706L175.961 158.367L119.755 159.289L92.4502 208.55L121.351 256.878L177.867 255.956L177.878 256.511L177.889 257.067L120.73 258L91.1758 208.572L119.101 158.189L176.582 157.245L206.136 206.684L178.21 257.067H177.889L177.878 256.511Z" fill="url(#paint0_linear_13_5995)"/>
<path d="M269.053 203.986L268.576 203.72L296.036 154.181L267.136 105.842L210.93 106.764L183.625 156.025L212.526 204.353L269.042 203.431L269.053 203.986L269.064 204.542L211.905 205.475L182.351 156.047L210.276 105.664L267.756 104.72L297.311 154.159L269.385 204.542H269.064L269.053 203.986Z" fill="url(#paint1_linear_13_5995)"/>
<path d="M176.226 151.792L175.749 151.525L203.209 101.986L174.309 53.647L118.103 54.5691L90.7978 103.83L119.699 152.158L176.215 151.236L176.226 151.792L176.237 152.347L119.078 153.28L89.5234 103.852L117.449 53.4692L174.929 52.5249L204.484 101.964L176.558 152.347H176.237L176.226 151.792Z" fill="url(#paint2_linear_13_5995)"/>
<path d="M86.7023 205.968L86.2258 205.702L113.686 156.163L84.7852 107.824L28.5794 108.746L1.27437 158.007L30.1751 206.335L86.6912 205.413L86.7023 205.968L86.7134 206.524L29.5546 207.457L0 158.029L27.9256 107.646L85.4057 106.702L114.96 156.141L87.0347 206.524H86.7134L86.7023 205.968Z" fill="url(#paint3_linear_13_5995)"/>
<path d="M267.071 99.2667L266.595 99.0001L294.055 49.4611L265.154 1.12211L208.949 2.04421L181.644 51.3054L210.544 99.6333L267.06 98.7112L267.071 99.2667L267.083 99.8222L209.924 100.755L180.369 51.3276L208.295 0.944346L265.775 0L295.329 49.4389L267.404 99.8222H267.083L267.071 99.2667Z" fill="url(#paint4_linear_13_5995)"/>
<defs>
<linearGradient id="paint0_linear_13_5995" x1="91.6246" y1="204.122" x2="207.87" y2="204.122" gradientUnits="userSpaceOnUse">
<stop stop-color="#956C1F"/>
<stop offset="0.07" stop-color="#B1903D"/>
<stop offset="0.13" stop-color="#C8AE56"/>
<stop offset="0.21" stop-color="#DBC669"/>
<stop offset="0.28" stop-color="#E7D777"/>
<stop offset="0.37" stop-color="#EFE07F"/>
<stop offset="0.47" stop-color="#F2E482"/>
<stop offset="0.53" stop-color="#EEDE7C"/>
<stop offset="0.6" stop-color="#E2CE6C"/>
<stop offset="0.68" stop-color="#CFB453"/>
<stop offset="0.77" stop-color="#B48D2D"/>
<stop offset="0.95" stop-color="#E3CE6D"/>
<stop offset="1" stop-color="#F2E482"/>
</linearGradient>
<linearGradient id="paint1_linear_13_5995" x1="182.799" y1="151.597" x2="299.045" y2="151.597" gradientUnits="userSpaceOnUse">
<stop stop-color="#956C1F"/>
<stop offset="0.07" stop-color="#B1903D"/>
<stop offset="0.13" stop-color="#C8AE56"/>
<stop offset="0.21" stop-color="#DBC669"/>
<stop offset="0.28" stop-color="#E7D777"/>
<stop offset="0.37" stop-color="#EFE07F"/>
<stop offset="0.47" stop-color="#F2E482"/>
<stop offset="0.53" stop-color="#EEDE7C"/>
<stop offset="0.6" stop-color="#E2CE6C"/>
<stop offset="0.68" stop-color="#CFB453"/>
<stop offset="0.77" stop-color="#B48D2D"/>
<stop offset="0.95" stop-color="#E3CE6D"/>
<stop offset="1" stop-color="#F2E482"/>
</linearGradient>
<linearGradient id="paint2_linear_13_5995" x1="89.9722" y1="99.4019" x2="206.218" y2="99.4019" gradientUnits="userSpaceOnUse">
<stop stop-color="#956C1F"/>
<stop offset="0.07" stop-color="#B1903D"/>
<stop offset="0.13" stop-color="#C8AE56"/>
<stop offset="0.21" stop-color="#DBC669"/>
<stop offset="0.28" stop-color="#E7D777"/>
<stop offset="0.37" stop-color="#EFE07F"/>
<stop offset="0.47" stop-color="#F2E482"/>
<stop offset="0.53" stop-color="#EEDE7C"/>
<stop offset="0.6" stop-color="#E2CE6C"/>
<stop offset="0.68" stop-color="#CFB453"/>
<stop offset="0.77" stop-color="#B48D2D"/>
<stop offset="0.95" stop-color="#E3CE6D"/>
<stop offset="1" stop-color="#F2E482"/>
</linearGradient>
<linearGradient id="paint3_linear_13_5995" x1="0.448804" y1="153.579" x2="116.695" y2="153.579" gradientUnits="userSpaceOnUse">
<stop stop-color="#956C1F"/>
<stop offset="0.07" stop-color="#B1903D"/>
<stop offset="0.13" stop-color="#C8AE56"/>
<stop offset="0.21" stop-color="#DBC669"/>
<stop offset="0.28" stop-color="#E7D777"/>
<stop offset="0.37" stop-color="#EFE07F"/>
<stop offset="0.47" stop-color="#F2E482"/>
<stop offset="0.53" stop-color="#EEDE7C"/>
<stop offset="0.6" stop-color="#E2CE6C"/>
<stop offset="0.68" stop-color="#CFB453"/>
<stop offset="0.77" stop-color="#B48D2D"/>
<stop offset="0.95" stop-color="#E3CE6D"/>
<stop offset="1" stop-color="#F2E482"/>
</linearGradient>
<linearGradient id="paint4_linear_13_5995" x1="180.818" y1="46.877" x2="297.064" y2="46.877" gradientUnits="userSpaceOnUse">
<stop stop-color="#956C1F"/>
<stop offset="0.07" stop-color="#B1903D"/>
<stop offset="0.13" stop-color="#C8AE56"/>
<stop offset="0.21" stop-color="#DBC669"/>
<stop offset="0.28" stop-color="#E7D777"/>
<stop offset="0.37" stop-color="#EFE07F"/>
<stop offset="0.47" stop-color="#F2E482"/>
<stop offset="0.53" stop-color="#EEDE7C"/>
<stop offset="0.6" stop-color="#E2CE6C"/>
<stop offset="0.68" stop-color="#CFB453"/>
<stop offset="0.77" stop-color="#B48D2D"/>
<stop offset="0.95" stop-color="#E3CE6D"/>
<stop offset="1" stop-color="#F2E482"/>
</linearGradient>
</defs>
</svg>
