<svg width="213" height="410" viewBox="0 0 213 410" fill="none" xmlns="http://www.w3.org/2000/svg">
<g opacity="0.2">
<path opacity="0.5" d="M-102.644 389.344L99.2409 389.344L192.143 303.586L192.143 106.463L99.2408 21.3013L-102.644 21.3013" stroke="url(#paint0_linear_184_4587)" stroke-width="2"/>
<path d="M-78.8135 359.336L90.4309 359.336L168.313 287.357L168.313 121.906L90.4309 50.4274L-78.8135 50.4274" stroke="url(#paint1_linear_184_4587)" stroke-opacity="0.9" stroke-width="2"/>
<path d="M-73.5181 340.797L72.7575 340.797L140.07 278.073L140.07 133.894L72.7575 71.6052L-73.5181 71.6052" stroke="url(#paint2_linear_184_4587)" stroke-opacity="0.9" stroke-width="2"/>
<path d="M-115 408.758L108.644 408.758L211.56 313.746L211.56 95.3506L108.644 0.998571L-115 0.99858" stroke="url(#paint3_linear_184_4587)" stroke-opacity="0.9" stroke-width="2"/>
</g>
<defs>
<linearGradient id="paint0_linear_184_4587" x1="-102.644" y1="205.323" x2="192.143" y2="205.323" gradientUnits="userSpaceOnUse">
<stop stop-color="#F15A29"/>
<stop offset="0.51" stop-color="#9124A3"/>
<stop offset="1" stop-color="#41124A"/>
</linearGradient>
<linearGradient id="paint1_linear_184_4587" x1="-78.8135" y1="204.882" x2="168.313" y2="204.882" gradientUnits="userSpaceOnUse">
<stop stop-color="#F15A29"/>
<stop offset="0.51" stop-color="#9124A3"/>
<stop offset="1" stop-color="#8B2200"/>
</linearGradient>
<linearGradient id="paint2_linear_184_4587" x1="-73.5181" y1="206.201" x2="140.07" y2="206.201" gradientUnits="userSpaceOnUse">
<stop stop-color="#F15A29"/>
<stop offset="0.51" stop-color="#9124A3"/>
<stop offset="1" stop-color="#8B2200"/>
</linearGradient>
<linearGradient id="paint3_linear_184_4587" x1="-115" y1="204.878" x2="211.56" y2="204.878" gradientUnits="userSpaceOnUse">
<stop stop-color="#F15A29"/>
<stop offset="0.51" stop-color="#9124A3"/>
<stop offset="1" stop-color="#8B2200"/>
</linearGradient>
</defs>
</svg>
