<svg width="244" height="410" viewBox="0 0 244 410" fill="none" xmlns="http://www.w3.org/2000/svg">
<g opacity="0.2">
<path opacity="0.5" d="M315.204 20.4141L113.32 20.4141L20.4171 106.172L20.4171 303.295L113.32 388.457L315.204 388.457" stroke="url(#paint0_linear_67_1234)" stroke-width="2"/>
<path d="M291.374 50.4258L122.13 50.4258L44.2472 122.404L44.2472 287.855L122.13 359.334L291.374 359.334" stroke="url(#paint1_linear_67_1234)" stroke-opacity="0.9" stroke-width="2"/>
<path d="M286.078 68.957L139.803 68.957L72.4899 131.681L72.4899 275.86L139.803 338.149L286.078 338.149" stroke="url(#paint2_linear_67_1234)" stroke-opacity="0.9" stroke-width="2"/>
<path d="M327.561 1L103.916 0.99999L1.00011 96.0118L1.00011 314.407L103.916 408.759L327.561 408.759" stroke="url(#paint3_linear_67_1234)" stroke-opacity="0.9" stroke-width="2"/>
</g>
<defs>
<linearGradient id="paint0_linear_67_1234" x1="315.204" y1="204.435" x2="20.4171" y2="204.435" gradientUnits="userSpaceOnUse">
<stop stop-color="#F15A29"/>
<stop offset="0.51" stop-color="#9124A3"/>
<stop offset="1" stop-color="#41124A"/>
</linearGradient>
<linearGradient id="paint1_linear_67_1234" x1="291.374" y1="204.88" x2="44.2472" y2="204.88" gradientUnits="userSpaceOnUse">
<stop stop-color="#F15A29"/>
<stop offset="0.51" stop-color="#9124A3"/>
<stop offset="1" stop-color="#8B2200"/>
</linearGradient>
<linearGradient id="paint2_linear_67_1234" x1="286.078" y1="203.553" x2="72.4899" y2="203.553" gradientUnits="userSpaceOnUse">
<stop stop-color="#F15A29"/>
<stop offset="0.51" stop-color="#9124A3"/>
<stop offset="1" stop-color="#8B2200"/>
</linearGradient>
<linearGradient id="paint3_linear_67_1234" x1="327.561" y1="204.88" x2="1.00011" y2="204.88" gradientUnits="userSpaceOnUse">
<stop stop-color="#F15A29"/>
<stop offset="0.51" stop-color="#9124A3"/>
<stop offset="1" stop-color="#8B2200"/>
</linearGradient>
</defs>
</svg>
