<svg width="221" height="410" viewBox="0 0 221 410" fill="none" xmlns="http://www.w3.org/2000/svg">
<g opacity="0.2">
<path opacity="0.5" d="M-94.6436 389.344L107.241 389.344L200.143 303.586L200.143 106.463L107.241 21.3013L-94.6436 21.3013" stroke="url(#paint0_linear_67_1224)" stroke-width="2"/>
<path d="M-70.8135 359.332L98.4309 359.332L176.313 287.353L176.313 121.902L98.4309 50.4235L-70.8135 50.4235" stroke="url(#paint1_linear_67_1224)" stroke-opacity="0.9" stroke-width="2"/>
<path d="M-65.5176 340.801L80.758 340.801L148.071 278.076L148.071 133.898L80.758 71.6091L-65.5176 71.6091" stroke="url(#paint2_linear_67_1224)" stroke-opacity="0.9" stroke-width="2"/>
<path d="M-107 408.758L116.644 408.758L219.56 313.746L219.56 95.3506L116.644 0.998571L-107 0.99858" stroke="url(#paint3_linear_67_1224)" stroke-opacity="0.9" stroke-width="2"/>
</g>
<defs>
<linearGradient id="paint0_linear_67_1224" x1="-94.6436" y1="205.323" x2="200.143" y2="205.323" gradientUnits="userSpaceOnUse">
<stop stop-color="#F15A29"/>
<stop offset="0.51" stop-color="#9124A3"/>
<stop offset="1" stop-color="#41124A"/>
</linearGradient>
<linearGradient id="paint1_linear_67_1224" x1="-70.8135" y1="204.878" x2="176.313" y2="204.878" gradientUnits="userSpaceOnUse">
<stop stop-color="#F15A29"/>
<stop offset="0.51" stop-color="#9124A3"/>
<stop offset="1" stop-color="#8B2200"/>
</linearGradient>
<linearGradient id="paint2_linear_67_1224" x1="-65.5176" y1="206.205" x2="148.071" y2="206.205" gradientUnits="userSpaceOnUse">
<stop stop-color="#F15A29"/>
<stop offset="0.51" stop-color="#9124A3"/>
<stop offset="1" stop-color="#8B2200"/>
</linearGradient>
<linearGradient id="paint3_linear_67_1224" x1="-107" y1="204.878" x2="219.56" y2="204.878" gradientUnits="userSpaceOnUse">
<stop stop-color="#F15A29"/>
<stop offset="0.51" stop-color="#9124A3"/>
<stop offset="1" stop-color="#8B2200"/>
</linearGradient>
</defs>
</svg>
