<svg width="240" height="46" viewBox="0 0 240 46" fill="none" xmlns="http://www.w3.org/2000/svg">
<rect opacity="0.7" y="8" width="107" height="33" fill="url(#paint0_linear_48_2765)"/>
<rect opacity="0.7" x="240" y="41" width="107" height="33" transform="rotate(-180 240 41)" fill="url(#paint1_linear_48_2765)"/>
<circle cx="121" cy="23" r="23" fill="#E04413"/>
<path d="M117.459 31H115.037C114.979 31 114.946 30.9674 114.939 30.9023L112.176 17.1621C112.163 17.11 112.189 17.084 112.254 17.084H114.52C114.572 17.084 114.604 17.11 114.617 17.1621L116.258 26.3223L117.859 17.1621C117.872 17.11 117.905 17.084 117.957 17.084H120.193C120.265 17.084 120.291 17.11 120.271 17.1621L117.557 30.9023C117.55 30.9674 117.518 31 117.459 31ZM124.842 31.1953C124.132 31.1953 123.478 31.013 122.879 30.6484C122.286 30.2839 121.811 29.7988 121.453 29.1934C121.102 28.5814 120.926 27.9108 120.926 27.1816V26.2637C120.926 26.1921 120.958 26.1562 121.023 26.1562H123.27C123.322 26.1562 123.348 26.1921 123.348 26.2637V27.1816C123.348 27.6178 123.494 27.9954 123.787 28.3145C124.08 28.627 124.432 28.7832 124.842 28.7832C125.258 28.7832 125.613 28.6237 125.906 28.3047C126.199 27.9792 126.346 27.6048 126.346 27.1816C126.346 26.6934 126.027 26.2669 125.389 25.9023C125.285 25.8372 125.148 25.7591 124.979 25.668C124.816 25.5703 124.62 25.4596 124.393 25.3359C124.165 25.2122 123.943 25.0918 123.729 24.9746C123.514 24.8509 123.305 24.7337 123.104 24.623C122.374 24.1934 121.831 23.6562 121.473 23.0117C121.121 22.3607 120.945 21.6315 120.945 20.8242C120.945 20.082 121.128 19.4115 121.492 18.8125C121.857 18.2201 122.332 17.7513 122.918 17.4062C123.51 17.0547 124.152 16.8789 124.842 16.8789C125.551 16.8789 126.202 17.0547 126.795 17.4062C127.387 17.7643 127.859 18.2396 128.211 18.832C128.569 19.4245 128.748 20.0885 128.748 20.8242V22.4648C128.748 22.5169 128.722 22.543 128.67 22.543H126.424C126.372 22.543 126.346 22.5169 126.346 22.4648L126.326 20.8242C126.326 20.3555 126.18 19.9746 125.887 19.6816C125.594 19.3887 125.245 19.2422 124.842 19.2422C124.432 19.2422 124.08 19.3984 123.787 19.7109C123.494 20.0234 123.348 20.3945 123.348 20.8242C123.348 21.2604 123.439 21.625 123.621 21.918C123.81 22.2109 124.152 22.4909 124.646 22.7578C124.699 22.7839 124.819 22.849 125.008 22.9531C125.197 23.0573 125.405 23.1745 125.633 23.3047C125.867 23.4284 126.079 23.5423 126.268 23.6465C126.456 23.7441 126.57 23.8027 126.609 23.8223C127.273 24.1934 127.798 24.6491 128.182 25.1895C128.572 25.7298 128.768 26.3939 128.768 27.1816C128.768 27.9434 128.592 28.627 128.24 29.2324C127.882 29.8379 127.407 30.3164 126.814 30.668C126.222 31.0195 125.564 31.1953 124.842 31.1953Z" fill="white"/>
<defs>
<linearGradient id="paint0_linear_48_2765" x1="0" y1="24.5" x2="107" y2="24.5" gradientUnits="userSpaceOnUse">
<stop stop-color="white"/>
<stop offset="1" stop-color="#E04413"/>
</linearGradient>
<linearGradient id="paint1_linear_48_2765" x1="240" y1="57.5" x2="347" y2="57.5" gradientUnits="userSpaceOnUse">
<stop stop-color="white"/>
<stop offset="1" stop-color="#E04413"/>
</linearGradient>
</defs>
</svg>
